<svg width="66" height="95" viewBox="0 0 66 95" fill="none" xmlns="http://www.w3.org/2000/svg">
<path d="M65.6943 95H0.821289V81.3525L24.1172 57.8027C28.8145 52.9785 32.5807 48.9583 35.416 45.7422C38.2936 42.4837 40.3672 39.5215 41.6367 36.8555C42.9486 34.1895 43.6045 31.333 43.6045 28.2861C43.6045 24.6045 42.5677 21.8538 40.4941 20.0342C38.4629 18.1722 35.7334 17.2412 32.3057 17.2412C28.7087 17.2412 25.2174 18.0664 21.832 19.7168C18.4466 21.3672 14.9131 23.7158 11.2314 26.7627L0.567383 14.1309C3.2334 11.8457 6.04753 9.6875 9.00977 7.65625C12.0143 5.625 15.4844 3.99577 19.4199 2.76855C23.3978 1.49902 28.1585 0.864258 33.7021 0.864258C39.7959 0.864258 45.0221 1.96452 49.3809 4.16504C53.7819 6.36556 57.1673 9.37012 59.5371 13.1787C61.9069 16.945 63.0918 21.2191 63.0918 26.001C63.0918 31.1214 62.0762 35.7975 60.0449 40.0293C58.0137 44.2611 55.0514 48.4505 51.1582 52.5977C47.3073 56.7448 42.6523 61.3363 37.1934 66.3721L25.2598 77.6074V78.4961H65.6943V95Z" fill="white" fill-opacity="0.5"/>
</svg>
