<svg width="65" height="97" viewBox="0 0 65 97" fill="none" xmlns="http://www.w3.org/2000/svg">
<path d="M62.0764 22.9541C62.0764 27.2282 61.1877 30.931 59.4104 34.0625C57.6331 37.194 55.2209 39.7542 52.1741 41.7432C49.1695 43.7321 45.7841 45.1921 42.0178 46.123V46.5039C49.4657 47.4349 55.1152 49.7201 58.9661 53.3594C62.8593 56.9987 64.8059 61.8652 64.8059 67.959C64.8059 73.3757 63.4729 78.221 60.8069 82.4951C58.1832 86.7692 54.1207 90.1335 48.6194 92.5879C43.1181 95.0423 36.0299 96.2695 27.3547 96.2695C22.2343 96.2695 17.4524 95.8464 13.009 95C8.60799 94.196 4.46086 92.9476 0.567627 91.2549V74.5605C4.54549 76.5918 8.71379 78.1364 13.0725 79.1943C17.4312 80.21 21.4937 80.7178 25.26 80.7178C32.2847 80.7178 37.1936 79.5117 39.9866 77.0996C42.8219 74.6452 44.2395 71.2174 44.2395 66.8164C44.2395 64.235 43.5836 62.0557 42.2717 60.2783C40.9599 58.501 38.6747 57.1468 35.4163 56.2158C32.2001 55.2848 27.6933 54.8193 21.8958 54.8193H14.8499V39.7754H22.0227C27.7356 39.7754 32.0732 39.2464 35.0354 38.1885C38.04 37.0882 40.0712 35.6071 41.1292 33.7451C42.2294 31.8408 42.7795 29.6826 42.7795 27.2705C42.7795 23.9697 41.7639 21.3883 39.7327 19.5264C37.7014 17.6644 34.316 16.7334 29.5764 16.7334C26.6142 16.7334 23.9058 17.1143 21.4514 17.876C19.0393 18.5954 16.8599 19.484 14.9133 20.542C12.9667 21.5576 11.2528 22.5521 9.77173 23.5254L0.69458 10.0049C4.3339 7.38118 8.58683 5.20182 13.4534 3.4668C18.3622 1.73177 24.2021 0.864258 30.9729 0.864258C40.5367 0.864258 48.1116 2.78971 53.6975 6.64062C59.2834 10.4915 62.0764 15.9294 62.0764 22.9541Z" fill="white" fill-opacity="0.5"/>
</svg>
