<svg width="71" height="93" viewBox="0 0 71 93" fill="none" xmlns="http://www.w3.org/2000/svg">
<path d="M70.7891 73.7666H59.6172V93H40.4473V73.7666H0.837891V60.1191L41.5264 0.197266L59.6172 0.197266V58.5322H70.7891V73.7666ZM40.4473 58.5322V42.79C40.4473 41.3089 40.4684 39.5527 40.5107 37.5215C40.5954 35.4902 40.68 33.459 40.7646 31.4277C40.8493 29.3965 40.9339 27.598 41.0186 26.0322C41.1455 24.4242 41.2301 23.3027 41.2725 22.668H40.7646C39.9606 24.403 39.1143 26.0957 38.2256 27.7461C37.3369 29.3542 36.3001 31.0469 35.1152 32.8242L18.1035 58.5322H40.4473Z" fill="white" fill-opacity="0.5"/>
</svg>
