<svg width="66" height="65" viewBox="0 0 66 65" fill="none" xmlns="http://www.w3.org/2000/svg">
<path d="M46.7397 64.48C43.7488 65.8775 40.2545 64.35 38.9811 61.035C37.7078 57.7525 39.0996 53.9175 42.1201 52.52C45.111 51.1225 48.6053 52.65 49.8786 55.965C51.152 59.2475 49.7602 63.0825 46.7397 64.48ZM19.6144 13C22.9014 13 25.5369 10.1075 25.5369 6.5C25.5369 2.925 22.9014 0 19.6144 0C16.2978 0 13.6918 2.925 13.6918 6.5C13.6918 10.1075 16.2978 13 19.6144 13ZM62.3456 46.605L50.9447 52C51.5962 52.715 52.1884 53.625 52.603 54.665C53.0176 55.7375 53.1953 56.875 53.3137 57.915L64.6554 52.585L62.3456 46.605ZM27.136 22.035L29.3274 27.9175C28.6167 27.625 27.9652 27.235 27.4322 26.845C25.6554 25.5775 24.3524 23.985 23.4937 22.1L21.3023 16.9975C20.7397 15.86 20.0586 15.015 19.111 14.43C18.2522 13.8775 17.3342 13.585 16.3866 13.585C15.439 13.585 14.5506 13.845 13.6918 14.3C9.54605 17.875 8.5096 24.505 8.5096 24.505L7.50277 29.6075C7.23625 31.2975 7.08819 32.9875 7.08819 34.71V50.83L0.0107422 61.3275L4.45266 65L12.6554 52.8125L13.1588 42.25L18.1337 49.855V65H23.6121V45.305L18.1337 36.8225V34.71C18.1337 33.28 18.1337 31.8825 18.4595 30.5175L19.4959 26.6175C20.6212 28.405 21.9834 29.965 23.6121 31.2975C24.9447 32.4025 28.6759 34.3525 32.1998 35.295L38.5073 51.35C39.1588 50.635 39.988 49.985 40.9652 49.53C41.9128 49.075 42.9492 48.88 43.8968 48.75L32.5848 19.5L27.136 22.035ZM42.5347 32.89L48.3388 47.84L65.0107 40.0075L59.2363 25.09" fill="#172144"/>
</svg>
