<svg width="65" height="65" viewBox="0 0 65 65" fill="none" xmlns="http://www.w3.org/2000/svg">
<path d="M46.67 39C46.93 36.855 47.125 34.71 47.125 32.5C47.125 30.29 46.93 28.145 46.67 26H57.655C58.175 28.08 58.5 30.2575 58.5 32.5C58.5 34.7425 58.175 36.92 57.655 39H46.67ZM40.9175 57.07C42.8675 53.4625 44.3625 49.5625 45.4025 45.5H54.99C51.87 50.8625 46.8975 55.0225 40.9175 57.07ZM40.105 39H24.895C24.57 36.855 24.375 34.71 24.375 32.5C24.375 30.29 24.57 28.1125 24.895 26H40.105C40.3975 28.1125 40.625 30.29 40.625 32.5C40.625 34.71 40.3975 36.855 40.105 39ZM32.5 58.37C29.8025 54.47 27.625 50.1475 26.2925 45.5H38.7075C37.375 50.1475 35.1975 54.47 32.5 58.37ZM19.5 19.5H10.01C13.0975 14.105 18.1025 9.945 24.05 7.93C22.1 11.5375 20.6375 15.4375 19.5 19.5ZM10.01 45.5H19.5C20.6375 49.5625 22.1 53.4625 24.05 57.07C18.1025 55.0225 13.0975 50.8625 10.01 45.5ZM7.345 39C6.825 36.92 6.5 34.7425 6.5 32.5C6.5 30.2575 6.825 28.08 7.345 26H18.33C18.07 28.145 17.875 30.29 17.875 32.5C17.875 34.71 18.07 36.855 18.33 39H7.345ZM32.5 6.5975C35.1975 10.4975 37.375 14.8525 38.7075 19.5H26.2925C27.625 14.8525 29.8025 10.4975 32.5 6.5975ZM54.99 19.5H45.4025C44.3625 15.4375 42.8675 11.5375 40.9175 7.93C46.8975 9.9775 51.87 14.105 54.99 19.5ZM32.5 0C14.5275 0 0 14.625 0 32.5C0 41.1195 3.4241 49.386 9.51903 55.481C12.5369 58.4989 16.1197 60.8928 20.0628 62.5261C24.0059 64.1594 28.232 65 32.5 65C41.1195 65 49.386 61.5759 55.481 55.481C61.5759 49.386 65 41.1195 65 32.5C65 28.232 64.1594 24.0059 62.5261 20.0628C60.8928 16.1197 58.4989 12.5369 55.481 9.51903C52.4631 6.50113 48.8803 4.10719 44.9372 2.47392C40.9941 0.840637 36.768 0 32.5 0Z" fill="#4F75E2"/>
</svg>
