<svg width="26" height="22" viewBox="0 0 26 22" fill="none" xmlns="http://www.w3.org/2000/svg">
<path d="M9.95368 0.138555L9.95578 0.138921V0.137131L9.95368 0.138555Z" fill="white"/>
<path d="M9.95368 0.138555C8.61379 -0.0952716 7.22997 -0.0324169 5.92368 0.321615C4.61672 0.675831 3.42738 1.31069 2.46018 2.17039C1.42853 3.08568 0.685341 4.2268 0.305291 5.47911C-0.0747599 6.73141 -0.0782905 8.0508 0.295054 9.3047C0.668832 9.0172 1.1185 8.8191 1.6018 8.72903C2.08511 8.63896 2.58617 8.65987 3.05791 8.7898C3.52965 8.91973 3.95658 9.15441 4.29857 9.47179C4.64056 9.78916 4.88638 10.1788 5.01294 10.6041C5.40733 10.5533 5.80922 10.5753 6.19366 10.6688C6.5781 10.7622 6.93686 10.9252 7.24765 11.1474C7.55845 11.3696 7.81464 11.6465 8.0003 11.9607C8.18597 12.2749 8.29714 12.6198 8.32691 12.9739C9.02179 13.0178 9.67566 13.2833 10.1688 13.7218C10.6619 14.1603 10.9614 14.7424 11.0122 15.3615C11.5668 15.3963 12.0985 15.5724 12.5438 15.869C12.9892 16.1655 13.3295 16.57 13.524 17.0341C13.7186 17.4982 13.7592 18.0024 13.6411 18.4865C13.5231 18.9706 13.2512 19.4143 12.858 19.7645L12.386 20.1834L13.7739 21.3521C13.9592 21.5085 14.2057 21.5942 14.4608 21.5908C14.716 21.5875 14.9596 21.4954 15.1396 21.3342C15.3061 21.185 15.407 20.9875 15.424 20.7777C15.4409 20.5678 15.3728 20.3594 15.232 20.1905L15.1557 20.1225C15.1217 20.0923 15.0902 20.06 15.0613 20.0259L14.8584 19.8433C14.6699 19.6749 14.5641 19.4467 14.5641 19.2088C14.5641 18.9709 14.6699 18.7427 14.8584 18.5743C14.9514 18.4913 15.0617 18.4255 15.1832 18.3806C15.3047 18.3357 15.4349 18.3126 15.5664 18.3126C15.698 18.3126 15.8282 18.3357 15.9497 18.3806C16.0712 18.4255 16.1815 18.4913 16.2744 18.5743L16.5556 18.8249C16.6159 18.8786 16.6721 18.9323 16.7243 18.9895L16.8749 19.1256C16.9631 19.2047 17.0679 19.2675 17.1834 19.3103C17.2988 19.3532 17.4227 19.3752 17.5478 19.3752C17.6729 19.3752 17.7967 19.3532 17.9122 19.3103C18.0277 19.2675 18.1325 19.2047 18.2206 19.1256C18.3993 18.9656 18.4996 18.749 18.4996 18.5233C18.4996 18.2976 18.3993 18.081 18.2206 17.921L17.9194 17.6525C17.823 17.5665 17.7473 17.4639 17.6969 17.351C17.6464 17.2381 17.6224 17.1172 17.6261 16.9957C17.6262 16.8192 17.6847 16.6467 17.7944 16.4999C17.9042 16.353 18.0601 16.2383 18.2428 16.1702C18.4254 16.1021 18.6266 16.0837 18.821 16.1172C19.0154 16.1507 19.1943 16.2346 19.3353 16.3585L19.5643 16.5625C19.6621 16.6501 19.7783 16.7197 19.9064 16.7671C20.0344 16.8145 20.1718 16.839 20.3104 16.839C20.4491 16.839 20.5864 16.8145 20.7145 16.7671C20.8425 16.7197 20.9588 16.6501 21.0566 16.5625C21.2539 16.3852 21.3647 16.1455 21.3647 15.8958C21.3647 15.6461 21.2539 15.4064 21.0566 15.2291L21.0064 15.1825C20.9435 15.1337 20.8825 15.083 20.8236 15.0304L19.267 13.6379C19.0791 13.4696 18.9737 13.2418 18.9737 13.0043C18.9737 12.7669 19.0791 12.5391 19.267 12.3707C19.3599 12.2877 19.4703 12.2219 19.5918 12.177C19.7133 12.1321 19.8435 12.109 19.975 12.109C20.1065 12.109 20.2368 12.1321 20.3583 12.177C20.4797 12.2219 20.5901 12.2877 20.683 12.3707L22.1472 13.6773C22.1819 13.7016 22.2147 13.7279 22.2456 13.756L22.3661 13.8634C22.6773 14.0893 23.0715 14.2042 23.4723 14.1856C23.8731 14.1671 24.252 14.0166 24.5352 13.7632C24.8398 13.4905 25.0107 13.1214 25.0107 12.7367C25.0107 12.352 24.8398 11.9829 24.5352 11.7103L23.053 10.384C23.0328 10.3686 23.0134 10.3525 22.9947 10.3357L16.9854 4.89095H15.4469L12.0084 7.22133C10.3454 8.34893 7.97141 8.06255 6.70407 6.58056C6.40255 6.22851 6.18189 5.82692 6.05472 5.39878C5.92756 4.97064 5.89638 4.52435 5.96298 4.08546C6.02958 3.64657 6.19265 3.2237 6.44285 2.84103C6.69305 2.45837 7.02547 2.12343 7.42109 1.85538L9.95368 0.138555Z" fill="white"/>
<path d="M17.7955 3.17137C17.6727 3.12528 17.5409 3.10141 17.4077 3.10116H15.108C14.8889 3.10141 14.6759 3.16552 14.5015 3.28372L10.7938 5.79666C10.4185 6.05111 9.94511 6.16237 9.47775 6.10599C9.01039 6.04961 8.58726 5.8302 8.30133 5.49597C8.15985 5.33086 8.05634 5.14249 7.99672 4.94166C7.9371 4.74083 7.92255 4.53149 7.95389 4.32564C7.98524 4.11978 8.06187 3.92147 8.17939 3.74206C8.29692 3.56265 8.45302 3.40568 8.63875 3.28014L13.2723 0.138968C13.3069 0.115817 13.3397 0.0907074 13.3707 0.0637945H18.2914C19.0375 0.0624528 19.7716 0.230624 20.4244 0.552421C21.2129 0.861463 21.9225 1.31029 22.5101 1.87157C23.0976 2.43286 23.5508 3.09485 23.8421 3.81722C24.1333 4.5396 24.2565 5.30725 24.2042 6.07342C24.1518 6.83959 23.925 7.58825 23.5376 8.2738L18.1227 3.36963C18.0295 3.28486 17.9182 3.21746 17.7955 3.17137Z" fill="white"/>
<path d="M8.74703 16.1114L7.42947 17.2837C7.26154 17.433 7.03402 17.5169 6.79681 17.5169C6.55959 17.5169 6.33207 17.433 6.16414 17.2837C6.00036 17.1387 5.90628 16.9426 5.90179 16.7368C5.89729 16.5311 5.98272 16.3318 6.14004 16.1812L7.4837 14.9856L7.5078 14.9659C7.67761 14.8266 7.90108 14.7509 8.13184 14.7546C8.36259 14.7583 8.5829 14.841 8.74703 14.9856C8.8304 15.0593 8.89658 15.147 8.94174 15.2436C8.9869 15.3402 9.01015 15.4438 9.01015 15.5485C9.01015 15.6531 8.9869 15.7568 8.94174 15.8534C8.89658 15.95 8.8304 16.0377 8.74703 16.1114Z" fill="white"/>
<path d="M9.48393 19.9048C9.24672 19.9048 9.01919 19.8209 8.85126 19.6716C8.76818 19.598 8.70226 19.5104 8.65728 19.4139C8.6123 19.3175 8.58914 19.2141 8.58914 19.1096C8.58914 19.0052 8.6123 18.9018 8.65728 18.8053C8.70226 18.7089 8.76818 18.6213 8.85126 18.5476L10.1708 17.3753C10.3166 17.2457 10.508 17.1648 10.7129 17.1462C10.9177 17.1276 11.1235 17.1725 11.2956 17.2733C11.4065 17.3379 11.4999 17.4238 11.5688 17.5247C11.6377 17.6256 11.6805 17.7389 11.694 17.8564C11.7075 17.9739 11.6913 18.0926 11.6467 18.2038C11.6021 18.3151 11.5302 18.416 11.4362 18.4993L10.1166 19.6716C9.94866 19.8209 9.72114 19.9048 9.48393 19.9048Z" fill="white"/>
<path d="M2.85615 11.7994L1.5386 12.9736C1.37067 13.1229 1.14314 13.2067 0.905929 13.2067C0.668718 13.2067 0.441193 13.1229 0.273263 12.9736C0.109486 12.8285 0.0154086 12.6324 0.0109112 12.4267C0.00641369 12.2209 0.091848 12.0217 0.249161 11.871L0.273263 11.8478L1.59283 10.6754L1.61693 10.6557C1.78676 10.5163 2.01048 10.4406 2.24138 10.4446C2.47228 10.4486 2.69253 10.532 2.85615 10.6772C2.93923 10.7509 3.00515 10.8385 3.05013 10.9349C3.09511 11.0314 3.11827 11.1348 3.11827 11.2392C3.11827 11.3437 3.09511 11.4471 3.05013 11.5435C3.00515 11.64 2.93923 11.7276 2.85615 11.8012V11.7994Z" fill="white"/>
<path d="M4.5035 14.9642L5.82306 13.7936H5.82105C5.90443 13.7199 5.97061 13.6322 6.01577 13.5356C6.06093 13.439 6.08418 13.3354 6.08418 13.2307C6.08418 13.126 6.06093 13.0224 6.01577 12.9258C5.97061 12.8292 5.90443 12.7415 5.82105 12.6678C5.65743 12.5225 5.43719 12.4392 5.20628 12.4352C4.97538 12.4312 4.75166 12.5068 4.58183 12.6463L3.21406 13.8634C3.05735 14.014 2.97229 14.2128 2.97678 14.4181C2.98128 14.6234 3.07498 14.8192 3.23817 14.9642C3.4061 15.1135 3.63362 15.1973 3.87083 15.1973C4.10804 15.1973 4.33557 15.1135 4.5035 14.9642Z" fill="white"/>
</svg>
