<svg width="218" height="238" viewBox="0 0 218 238" fill="none" xmlns="http://www.w3.org/2000/svg">
<path d="M26.5 1.36659C15.3 4.36659 5.5 13.3666 1.8 23.9666C0.2 28.7666 0 32.9666 0 69.2666C0.1 113.867 0.6 119.367 7 138.467C13.9 159.067 25.1 177.167 41.3 193.967C57.7 210.967 75 223.867 93.9 233.367C102.5 237.667 103.4 237.967 110.1 237.567C118.6 237.167 125.4 233.967 144.5 221.267C183.7 195.167 208 161.167 216.2 120.967C217.8 113.467 218 106.467 218 69.7666V27.2666L214.7 20.5666C210.7 12.4666 203.7 5.7666 195.7 2.5666L190 0.266602L111 0.0666046C43.8 -0.133408 31.2 0.0666046 26.5 1.36659ZM114.6 39.9666C123.3 50.9666 127.5 62.6666 127.5 75.7666C127.5 85.6666 125.8 93.1666 121 103.767C116.8 113.067 114.6 120.767 113.7 128.967L113 135.267L109.3 135.567L105.6 135.867L105 131.067C103.9 122.367 101.4 113.367 97.8 105.267C88.6 84.4666 88.3 68.1666 96.6 51.4666C100.5 43.6666 107.1 34.7666 109 34.7666C109.8 34.7666 112.3 37.0666 114.6 39.9666ZM75.4 88.3666C84.2 92.7666 91.3 104.067 95.5 120.567C96.6 124.767 97.6 129.867 97.7 131.767C98 134.967 97.7 135.267 95.2 135.567C92.8 135.867 92.3 135.367 90.6 131.467C87.1 123.367 79.8 116.767 74.2 116.767C70.9 116.767 69.5 118.567 69.5 122.767C69.5 126.467 68.1 128.767 65.9 128.767C64 128.767 53.6 118.867 51.8 115.367C47.7 107.367 48.5 98.1666 53.8 92.0666C59.8 85.2666 66.8 84.0666 75.4 88.3666ZM159.3 87.8666C165.9 91.0666 169 96.4666 169 104.667C169 112.867 165.8 118.867 158.3 124.867C152 129.767 150.2 129.667 149.4 124.067C149.1 121.767 148.3 119.267 147.6 118.367C143.8 113.767 134.3 119.367 128.7 129.467C126 134.467 124.8 135.767 122.9 135.767C120.9 135.767 120.5 135.267 120.5 132.467C120.5 127.767 124.8 112.867 128.3 105.367C133.7 93.7666 143.1 85.8666 151.4 85.7666C153.3 85.7666 156.8 86.7666 159.3 87.8666ZM135.1 141.267C135.5 142.067 135.2 143.467 134.5 144.267C133.5 145.567 129.4 145.767 110 145.767C97.1 145.767 86 145.467 85.1 145.167C83.5 144.567 82.9 141.667 84.2 140.467C84.5 140.067 96 139.767 109.7 139.767C131 139.767 134.6 139.967 135.1 141.267ZM122 153.767C123.4 156.467 126.5 161.167 129 164.167C132.9 168.967 134.4 171.767 133.2 171.767C132.1 171.767 121.4 167.767 118.8 166.367C117.1 165.567 114.7 163.267 113.5 161.267C112.3 159.367 110.5 157.767 109.5 157.767C108.6 157.767 106.1 159.767 104.2 162.167C101.3 165.667 99.2 166.967 93.1 169.167C89 170.567 85.4 171.767 85.1 171.767C83.7 171.767 84.7 169.967 89 164.767C91.5 161.767 94.7 156.867 96.3 154.067L99 148.767H109.2H119.5L122 153.767Z" fill="#4F75E2"/>
</svg>
