<svg width="19" height="20" viewBox="0 0 19 20" fill="none" xmlns="http://www.w3.org/2000/svg">
<path d="M0.0109863 19.6364L1.51099 18.1636L3.01099 19.6364L4.51099 18.1636L6.01099 19.6364L7.51099 18.1636L9.01099 19.6364L10.511 18.1636L12.011 19.6364L13.511 18.1636L15.011 19.6364L16.511 18.1636L18.011 19.6364V0L16.511 1.47273L15.011 0L13.511 1.47273L12.011 0L10.511 1.47273L9.01099 0L7.51099 1.47273L6.01099 0L4.51099 1.47273L3.01099 0L1.51099 1.47273L0.0109863 0V19.6364ZM15.011 6.87273H3.01099V4.90909H15.011V6.87273ZM15.011 10.8H3.01099V8.83636H15.011V10.8ZM15.011 14.7273H3.01099V12.7636H15.011V14.7273Z" fill="white"/>
</svg>
