<svg width="21" height="28" viewBox="0 0 21 28" fill="none" xmlns="http://www.w3.org/2000/svg">
<path d="M9.76305 16.1093C9.16547 16.6942 8.44074 17.1647 7.63972 17.4571V27.972H3.82535V25.4291H0.0109863V21.6148H3.82535V17.4444C1.61302 16.6561 0.0109863 14.5709 0.0109863 12.0788C0.0109863 8.90019 2.5539 6.35728 5.73254 6.35728C5.7834 6.35728 5.82154 6.35728 5.85968 6.35728C5.2621 7.56516 4.99509 8.90019 5.13495 10.2734C4.38479 10.5277 3.82535 11.2397 3.82535 12.0788C3.82535 13.1341 4.67723 13.986 5.73254 13.986C6.02497 13.986 6.30469 13.9097 6.55898 13.7953C7.37271 14.8633 8.4916 15.6643 9.76305 16.1093ZM20.011 23.4457L16.5018 24.9205L15.51 22.5811L12.0008 24.0687L10.5132 20.5467L14.0351 19.0718L12.4204 15.2575C10.0682 15.3592 7.77958 14.0496 6.81328 11.761C5.59268 8.84933 6.96585 5.49269 9.87748 4.25938C10.1826 4.13223 10.5132 4.04323 10.8184 3.96694C9.9792 2.37762 8.27545 1.27146 6.36827 1.27146C3.55835 1.27146 1.28244 3.54736 1.28244 6.35728C1.28244 6.459 1.28244 6.56071 1.28244 6.66243C0.901005 6.99301 0.519569 7.39987 0.201705 7.81945C0.0872738 7.34902 0.0109863 6.86586 0.0109863 6.35728C0.0109863 2.84806 2.85905 0 6.36827 0C9.87748 0 12.7255 2.84806 12.7255 6.35728C12.7255 8.16275 11.9627 9.75207 10.7548 10.8964C11.2888 11.4431 12.0898 11.6084 12.8273 11.2905C13.8063 10.8837 14.2513 9.76478 13.8444 8.79848C13.8063 8.68404 13.7427 8.56961 13.6664 8.4679C13.8699 7.79402 13.997 7.09472 13.997 6.35728C13.997 5.55626 13.8699 4.78067 13.641 4.05594C15.2685 4.51367 16.6671 5.64527 17.3664 7.32359C18.3327 9.61221 17.6715 12.1678 15.9042 13.7444L20.011 23.4457ZM10.1826 9.66307C10.6531 9.14177 11.0091 8.53147 11.2252 7.8576C10.5386 8.20089 10.1445 8.90019 10.1826 9.66307Z" fill="white"/>
</svg>
