<svg width="72" height="72" viewBox="0 0 72 72" fill="none" xmlns="http://www.w3.org/2000/svg">
<path d="M29.761 38.8857C29.4302 38.4434 28.8035 38.3531 28.3613 38.6839C27.919 39.0147 27.8287 39.6414 28.1595 40.0836L29.761 38.8857ZM55.5001 41.3854L54.793 40.6783L54.7928 40.6784L55.5001 41.3854ZM66.0597 30.8258L66.7668 31.5329C66.7709 31.5288 66.7749 31.5247 66.779 31.5205L66.0597 30.8258ZM41.1742 5.94034L40.4795 5.22105C40.476 5.2244 40.4726 5.22778 40.4692 5.23117L41.1742 5.94034ZM34.415 11.2501C34.0233 11.6395 34.0215 12.2727 34.4109 12.6644C34.8003 13.056 35.4334 13.0579 35.8251 12.6685L34.415 11.2501ZM42.239 33.0439C42.5698 33.4862 43.1965 33.5765 43.6387 33.2457C44.081 32.9149 44.1713 32.2882 43.8405 31.846L42.239 33.0439ZM16.4999 30.5442L17.207 31.2513L17.2072 31.2512L16.4999 30.5442ZM5.94034 41.1038L5.23323 40.3967C5.22914 40.4008 5.22508 40.4049 5.22105 40.4091L5.94034 41.1038ZM30.8258 65.9893L31.5205 66.7085C31.5247 66.7045 31.5288 66.7005 31.5329 66.6964L30.8258 65.9893ZM37.5519 60.6774C37.9424 60.2869 37.9424 59.6537 37.5519 59.2632C37.1613 58.8727 36.5282 58.8727 36.1377 59.2632L37.5519 60.6774ZM28.1595 40.0836C29.757 42.2193 31.7951 43.9865 34.1357 45.2652L35.0946 43.5101C33.0057 42.3688 31.1868 40.7917 29.761 38.8857L28.1595 40.0836ZM34.1357 45.2652C36.4762 46.5439 39.0643 47.3043 41.7246 47.4949L41.8674 45.5C39.4932 45.3299 37.1834 44.6513 35.0946 43.5101L34.1357 45.2652ZM41.7246 47.4949C44.3848 47.6854 47.0549 47.3015 49.5537 46.3694L48.8547 44.4955C46.6246 45.3274 44.2416 45.67 41.8674 45.5L41.7246 47.4949ZM49.5537 46.3694C52.0526 45.4373 54.3218 43.9786 56.2073 42.0924L54.7928 40.6784C53.11 42.3618 51.0849 43.6636 48.8547 44.4955L49.5537 46.3694ZM56.2072 42.0925L66.7668 31.5329L65.3526 30.1187L54.793 40.6783L56.2072 42.0925ZM66.779 31.5205C70.167 28.0126 72.0417 23.3144 71.9993 18.4377L69.9994 18.4551C70.0372 22.8074 68.3641 27.0004 65.3404 30.1311L66.779 31.5205ZM71.9993 18.4377C71.9569 13.561 70.0009 8.89609 66.5524 5.44762L65.1382 6.86183C68.2158 9.93948 69.9616 14.1028 69.9994 18.4551L71.9993 18.4377ZM66.5524 5.44762C63.1039 1.99915 58.439 0.0430802 53.5623 0.000703037L53.5449 2.00063C57.8972 2.03845 62.0605 3.78418 65.1382 6.86183L66.5524 5.44762ZM53.5623 0.000703037C48.6856 -0.041674 43.9874 1.83303 40.4795 5.22105L41.8689 6.65963C44.9996 3.63593 49.1926 1.96281 53.5449 2.00063L53.5623 0.000703037ZM40.4692 5.23117L34.415 11.2501L35.8251 12.6685L41.8792 6.64951L40.4692 5.23117ZM43.8405 31.846C42.243 29.7103 40.2049 27.9431 37.8643 26.6644L36.9054 28.4195C38.9943 29.5608 40.8132 31.1379 42.239 33.0439L43.8405 31.846ZM37.8643 26.6644C35.5238 25.3857 32.9357 24.6253 30.2754 24.4347L30.1326 26.4296C32.5068 26.5997 34.8166 27.2783 36.9054 28.4195L37.8643 26.6644ZM30.2754 24.4347C27.6152 24.2442 24.9451 24.628 22.4463 25.5602L23.1453 27.4341C25.3754 26.6022 27.7584 26.2596 30.1326 26.4296L30.2754 24.4347ZM22.4463 25.5602C19.9474 26.4923 17.6783 27.951 15.7927 29.8372L17.2072 31.2512C18.89 29.5678 20.9151 28.266 23.1453 27.4341L22.4463 25.5602ZM15.7928 29.8371L5.23323 40.3967L6.64745 41.8109L17.207 31.2513L15.7928 29.8371ZM5.22105 40.4091C1.83303 43.917 -0.041674 48.6152 0.000703037 53.4919L2.00063 53.4745C1.96281 49.1222 3.63593 44.9292 6.65963 41.7985L5.22105 40.4091ZM0.000703037 53.4919C0.0430802 58.3686 1.99915 63.0335 5.44762 66.482L6.86183 65.0678C3.78418 61.9901 2.03845 57.8268 2.00063 53.4745L0.000703037 53.4919ZM5.44762 66.482C8.89609 69.9304 13.561 71.8865 18.4377 71.9289L18.4551 69.929C14.1028 69.8911 9.93948 68.1454 6.86183 65.0678L5.44762 66.482ZM18.4377 71.9289C23.3144 71.9713 28.0126 70.0966 31.5205 66.7085L30.1311 65.27C27.0004 68.2937 22.8074 69.9668 18.4551 69.929L18.4377 71.9289ZM31.5329 66.6964L37.5519 60.6774L36.1377 59.2632L30.1187 65.2821L31.5329 66.6964Z" fill="white"/>
</svg>
