<svg width="1324" height="238" viewBox="0 0 1324 238" fill="none" xmlns="http://www.w3.org/2000/svg">
<path d="M344.903 169L333.478 139.547H296.28L284.918 169H274L310.309 75.8164H320.021L356.075 169H344.903ZM330.24 129.962L319.386 100.699C319.132 99.9375 318.709 98.6891 318.116 96.9541C317.566 95.2191 316.995 93.4206 316.402 91.5586C315.81 89.6966 315.323 88.1943 314.942 87.0518C314.519 88.7868 314.054 90.5218 313.546 92.2568C313.08 93.9495 312.615 95.5365 312.149 97.0176C311.684 98.4564 311.282 99.6836 310.943 100.699L299.898 129.962H330.24ZM408.634 84.3857C403.513 84.3857 398.901 85.2744 394.796 87.0518C390.733 88.7868 387.263 91.3258 384.386 94.6689C381.55 97.9697 379.371 101.969 377.848 106.666C376.324 111.363 375.562 116.653 375.562 122.535C375.562 130.322 376.769 137.092 379.181 142.848C381.635 148.561 385.274 152.983 390.099 156.114C394.965 159.246 401.038 160.812 408.316 160.812C412.464 160.812 416.357 160.473 419.996 159.796C423.678 159.076 427.254 158.188 430.724 157.13V166.524C427.338 167.794 423.784 168.725 420.06 169.317C416.336 169.952 411.913 170.27 406.793 170.27C397.356 170.27 389.464 168.323 383.116 164.43C376.811 160.494 372.071 154.951 368.897 147.799C365.766 140.647 364.2 132.205 364.2 122.472C364.2 115.447 365.174 109.036 367.12 103.238C369.109 97.3984 371.987 92.3626 375.753 88.1309C379.562 83.8991 384.216 80.6406 389.718 78.3555C395.261 76.028 401.609 74.8643 408.761 74.8643C413.458 74.8643 417.986 75.3298 422.345 76.2607C426.703 77.1917 430.639 78.5247 434.151 80.2598L429.835 89.4004C426.873 88.0462 423.614 86.8825 420.06 85.9092C416.547 84.8936 412.739 84.3857 408.634 84.3857ZM479.347 169H468.492V85.7188H439.293V76.1973H508.419V85.7188H479.347V169ZM592.652 76.1973V136.246C592.652 142.805 591.319 148.645 588.653 153.766C586.03 158.886 582.052 162.927 576.72 165.89C571.388 168.81 564.701 170.27 556.661 170.27C545.193 170.27 536.454 167.159 530.445 160.938C524.479 154.718 521.495 146.402 521.495 135.992V76.1973H532.35V136.31C532.35 144.181 534.423 150.253 538.57 154.527C542.76 158.801 549.002 160.938 557.296 160.938C562.966 160.938 567.6 159.923 571.197 157.892C574.837 155.818 577.524 152.94 579.259 149.259C581.036 145.535 581.925 141.24 581.925 136.373V76.1973H592.652ZM675.489 169L664.063 139.547H626.866L615.504 169H604.586L640.895 75.8164H650.606L686.661 169H675.489ZM660.826 129.962L649.972 100.699C649.718 99.9375 649.295 98.6891 648.702 96.9541C648.152 95.2191 647.581 93.4206 646.988 91.5586C646.396 89.6966 645.909 88.1943 645.528 87.0518C645.105 88.7868 644.64 90.5218 644.132 92.2568C643.666 93.9495 643.201 95.5365 642.735 97.0176C642.27 98.4564 641.868 99.6836 641.529 100.699L630.484 129.962H660.826ZM699.547 169V76.1973H710.338V159.352H751.534V169H699.547ZM767.467 169V76.1973H778.258V169H767.467ZM856.144 144.308C856.144 149.809 854.768 154.506 852.018 158.399C849.309 162.25 845.501 165.191 840.592 167.223C835.683 169.254 829.907 170.27 823.263 170.27C819.75 170.27 816.428 170.1 813.297 169.762C810.165 169.423 807.288 168.937 804.664 168.302C802.04 167.667 799.734 166.884 797.745 165.953V155.606C800.919 156.918 804.791 158.146 809.361 159.288C813.932 160.388 818.714 160.938 823.707 160.938C828.362 160.938 832.298 160.325 835.514 159.098C838.73 157.828 841.163 156.03 842.813 153.702C844.506 151.332 845.353 148.497 845.353 145.196C845.353 142.022 844.654 139.378 843.258 137.262C841.861 135.104 839.534 133.157 836.275 131.422C833.059 129.645 828.658 127.761 823.072 125.772C819.137 124.376 815.667 122.853 812.662 121.202C809.658 119.509 807.14 117.605 805.108 115.489C803.077 113.373 801.533 110.919 800.475 108.126C799.459 105.333 798.951 102.138 798.951 98.541C798.951 93.5898 800.2 89.3581 802.696 85.8457C805.235 82.291 808.727 79.5827 813.17 77.7207C817.656 75.8164 822.797 74.8643 828.595 74.8643C833.546 74.8643 838.116 75.3298 842.306 76.2607C846.537 77.1917 850.41 78.4401 853.922 80.0059L850.558 89.2734C847.215 87.877 843.66 86.7132 839.894 85.7822C836.17 84.8512 832.319 84.3857 828.341 84.3857C824.363 84.3857 820.999 84.9782 818.248 86.1631C815.54 87.3057 813.466 88.9349 812.027 91.0508C810.589 93.1667 809.869 95.6846 809.869 98.6045C809.869 101.863 810.546 104.571 811.9 106.729C813.297 108.888 815.497 110.813 818.502 112.506C821.549 114.156 825.569 115.891 830.562 117.711C836.021 119.7 840.655 121.816 844.464 124.059C848.272 126.259 851.171 128.967 853.16 132.184C855.149 135.357 856.144 139.399 856.144 144.308ZM908.893 76.1973H935.172C946.767 76.1973 955.484 77.9323 961.324 81.4023C967.164 84.8724 970.084 90.7757 970.084 99.1123C970.084 102.709 969.386 105.947 967.989 108.824C966.635 111.66 964.646 114.008 962.022 115.87C959.399 117.732 956.161 119.023 952.311 119.742V120.377C956.373 121.012 959.97 122.175 963.102 123.868C966.233 125.561 968.688 127.931 970.465 130.978C972.242 134.024 973.131 137.896 973.131 142.594C973.131 148.307 971.798 153.131 969.132 157.066C966.508 161.002 962.784 163.985 957.96 166.017C953.136 168.006 947.423 169 940.821 169H908.893V76.1973ZM919.684 115.997H937.457C945.54 115.997 951.126 114.664 954.215 111.998C957.346 109.332 958.912 105.439 958.912 100.318C958.912 95.0286 957.05 91.2201 953.326 88.8926C949.645 86.5651 943.762 85.4014 935.68 85.4014H919.684V115.997ZM919.684 125.074V159.796H938.98C947.232 159.796 953.072 158.188 956.5 154.972C959.928 151.713 961.642 147.333 961.642 141.832C961.642 138.32 960.859 135.315 959.293 132.818C957.77 130.322 955.273 128.417 951.803 127.105C948.375 125.751 943.784 125.074 938.028 125.074H919.684ZM1051.14 169L1039.72 139.547H1002.52L991.158 169H980.24L1016.55 75.8164H1026.26L1062.32 169H1051.14ZM1036.48 129.962L1025.63 100.699C1025.37 99.9375 1024.95 98.6891 1024.36 96.9541C1023.81 95.2191 1023.24 93.4206 1022.64 91.5586C1022.05 89.6966 1021.56 88.1943 1021.18 87.0518C1020.76 88.7868 1020.29 90.5218 1019.79 92.2568C1019.32 93.9495 1018.86 95.5365 1018.39 97.0176C1017.92 98.4564 1017.52 99.6836 1017.18 100.699L1006.14 129.962H1036.48ZM1075.2 169V76.1973H1085.99V159.352H1127.19V169H1075.2ZM1171.62 169H1160.77V85.7188H1131.57V76.1973H1200.69V85.7188H1171.62V169ZM1214.72 169V76.1973H1225.51V169H1214.72ZM1290.7 84.3857C1285.58 84.3857 1280.97 85.2744 1276.87 87.0518C1272.8 88.7868 1269.33 91.3258 1266.46 94.6689C1263.62 97.9697 1261.44 101.969 1259.92 106.666C1258.39 111.363 1257.63 116.653 1257.63 122.535C1257.63 130.322 1258.84 137.092 1261.25 142.848C1263.71 148.561 1267.34 152.983 1272.17 156.114C1277.04 159.246 1283.11 160.812 1290.39 160.812C1294.53 160.812 1298.43 160.473 1302.07 159.796C1305.75 159.076 1309.32 158.188 1312.79 157.13V166.524C1309.41 167.794 1305.85 168.725 1302.13 169.317C1298.41 169.952 1293.98 170.27 1288.86 170.27C1279.43 170.27 1271.53 168.323 1265.19 164.43C1258.88 160.494 1254.14 154.951 1250.97 147.799C1247.84 140.647 1246.27 132.205 1246.27 122.472C1246.27 115.447 1247.24 109.036 1249.19 103.238C1251.18 97.3984 1254.06 92.3626 1257.82 88.1309C1261.63 83.8991 1266.29 80.6406 1271.79 78.3555C1277.33 76.028 1283.68 74.8643 1290.83 74.8643C1295.53 74.8643 1300.06 75.3298 1304.42 76.2607C1308.77 77.1917 1312.71 78.5247 1316.22 80.2598L1311.91 89.4004C1308.94 88.0462 1305.68 86.8825 1302.13 85.9092C1298.62 84.8936 1294.81 84.3857 1290.7 84.3857Z" fill="#4F75E2"/>
<path d="M26.5 1.36659C15.3 4.36659 5.5 13.3666 1.8 23.9666C0.2 28.7666 0 32.9666 0 69.2666C0.1 113.867 0.6 119.367 7 138.467C13.9 159.067 25.1 177.167 41.3 193.967C57.7 210.967 75 223.867 93.9 233.367C102.5 237.667 103.4 237.967 110.1 237.567C118.6 237.167 125.4 233.967 144.5 221.267C183.7 195.167 208 161.167 216.2 120.967C217.8 113.467 218 106.467 218 69.7666V27.2666L214.7 20.5666C210.7 12.4666 203.7 5.7666 195.7 2.5666L190 0.266602L111 0.0666046C43.8 -0.133408 31.2 0.0666046 26.5 1.36659ZM114.6 39.9666C123.3 50.9666 127.5 62.6666 127.5 75.7666C127.5 85.6666 125.8 93.1666 121 103.767C116.8 113.067 114.6 120.767 113.7 128.967L113 135.267L109.3 135.567L105.6 135.867L105 131.067C103.9 122.367 101.4 113.367 97.8 105.267C88.6 84.4666 88.3 68.1666 96.6 51.4666C100.5 43.6666 107.1 34.7666 109 34.7666C109.8 34.7666 112.3 37.0666 114.6 39.9666ZM75.4 88.3666C84.2 92.7666 91.3 104.067 95.5 120.567C96.6 124.767 97.6 129.867 97.7 131.767C98 134.967 97.7 135.267 95.2 135.567C92.8 135.867 92.3 135.367 90.6 131.467C87.1 123.367 79.8 116.767 74.2 116.767C70.9 116.767 69.5 118.567 69.5 122.767C69.5 126.467 68.1 128.767 65.9 128.767C64 128.767 53.6 118.867 51.8 115.367C47.7 107.367 48.5 98.1666 53.8 92.0666C59.8 85.2666 66.8 84.0666 75.4 88.3666ZM159.3 87.8666C165.9 91.0666 169 96.4666 169 104.667C169 112.867 165.8 118.867 158.3 124.867C152 129.767 150.2 129.667 149.4 124.067C149.1 121.767 148.3 119.267 147.6 118.367C143.8 113.767 134.3 119.367 128.7 129.467C126 134.467 124.8 135.767 122.9 135.767C120.9 135.767 120.5 135.267 120.5 132.467C120.5 127.767 124.8 112.867 128.3 105.367C133.7 93.7666 143.1 85.8666 151.4 85.7666C153.3 85.7666 156.8 86.7666 159.3 87.8666ZM135.1 141.267C135.5 142.067 135.2 143.467 134.5 144.267C133.5 145.567 129.4 145.767 110 145.767C97.1 145.767 86 145.467 85.1 145.167C83.5 144.567 82.9 141.667 84.2 140.467C84.5 140.067 96 139.767 109.7 139.767C131 139.767 134.6 139.967 135.1 141.267ZM122 153.767C123.4 156.467 126.5 161.167 129 164.167C132.9 168.967 134.4 171.767 133.2 171.767C132.1 171.767 121.4 167.767 118.8 166.367C117.1 165.567 114.7 163.267 113.5 161.267C112.3 159.367 110.5 157.767 109.5 157.767C108.6 157.767 106.1 159.767 104.2 162.167C101.3 165.667 99.2 166.967 93.1 169.167C89 170.567 85.4 171.767 85.1 171.767C83.7 171.767 84.7 169.967 89 164.767C91.5 161.767 94.7 156.867 96.3 154.067L99 148.767H109.2H119.5L122 153.767Z" fill="#4F75E2"/>
</svg>
