<svg width="150" height="137" viewBox="0 0 150 137" fill="none" xmlns="http://www.w3.org/2000/svg">
<path d="M61.3636 28.6364C61.3636 15.6818 53.1818 4.09091 40.9091 0V25.2273H20.4545V0C8.18182 4.09091 0 15.6818 0 28.6364C0 41.5909 8.18182 53.1818 20.4545 57.2727V132.273C20.4545 135 21.8182 136.364 23.8636 136.364H37.5C39.5455 136.364 40.9091 135 40.9091 132.955V57.9546C53.1818 53.8636 61.3636 42.2727 61.3636 28.6364ZM102.273 40.9091C102.273 40.9091 101.591 40.9091 102.273 40.9091C75.6818 41.5909 54.5455 62.7273 54.5455 88.6364C54.5455 115.227 75.6818 136.364 102.273 136.364C128.864 136.364 150 115.227 150 88.6364C150 62.0455 128.864 40.9091 102.273 40.9091ZM102.273 122.727C83.1818 122.727 68.1818 107.727 68.1818 88.6364C68.1818 69.5455 83.1818 54.5455 102.273 54.5455C121.364 54.5455 136.364 69.5455 136.364 88.6364C136.364 107.727 121.364 122.727 102.273 122.727ZM95.4545 61.3636V95.4546L120 110.455L125.455 102.273L105.682 90.6818V61.3636H95.4545Z" fill="#4F75E2"/>
</svg>
