<svg width="61" height="60" viewBox="0 0 61 60" fill="none" xmlns="http://www.w3.org/2000/svg">
<path d="M30.0107 0C26.0711 0 22.17 0.775973 18.5302 2.28361C14.8905 3.79126 11.5833 6.00104 8.79754 8.7868C3.17145 14.4129 0.0107422 22.0435 0.0107422 30C0.0107422 37.9565 3.17145 45.5871 8.79754 51.2132C11.5833 53.999 14.8905 56.2087 18.5302 57.7164C22.17 59.224 26.0711 60 30.0107 60C37.9672 60 45.5979 56.8393 51.2239 51.2132C56.85 45.5871 60.0107 37.9565 60.0107 30C60.0107 26.0603 59.2348 22.1593 57.7271 18.5195C56.2195 14.8797 54.0097 11.5726 51.2239 8.7868C48.4382 6.00104 45.131 3.79126 41.4912 2.28361C37.8515 0.775973 33.9504 0 30.0107 0ZM30.0107 6C36.3759 6 42.4804 8.52856 46.9813 13.0294C51.4822 17.5303 54.0107 23.6348 54.0107 30C54.0107 37.2 51.0107 43.5 45.9107 48C41.7107 44.1 36.0107 42 30.0107 42C24.0107 42 18.6107 44.1 14.1107 48C9.01074 43.5 6.01074 37.2 6.01074 30C6.01074 23.6348 8.53931 17.5303 13.0402 13.0294C17.5411 8.52856 23.6455 6 30.0107 6ZM36.0107 11.67C34.8707 11.7 33.7907 12.45 33.3107 13.62L29.4407 23.31L29.1407 24C27.0107 24.39 25.2407 25.8 24.4307 27.78C23.2007 30.87 24.7007 34.35 27.7907 35.58C30.8807 36.81 34.3607 35.31 35.5907 32.22C36.3707 30.24 36.0107 27.96 34.7207 26.28L35.0207 25.5L38.8907 15.87L38.9207 15.78C39.5207 14.25 38.7707 12.51 37.2407 11.88C36.8507 11.73 36.4607 11.67 36.0107 11.67ZM24.0107 12C23.2151 12 22.452 12.3161 21.8894 12.8787C21.3268 13.4413 21.0107 14.2044 21.0107 15C21.0107 15.7956 21.3268 16.5587 21.8894 17.1213C22.452 17.6839 23.2151 18 24.0107 18C24.8064 18 25.5695 17.6839 26.1321 17.1213C26.6947 16.5587 27.0107 15.7956 27.0107 15C27.0107 14.2044 26.6947 13.4413 26.1321 12.8787C25.5695 12.3161 24.8064 12 24.0107 12ZM15.0107 21C14.2151 21 13.452 21.3161 12.8894 21.8787C12.3268 22.4413 12.0107 23.2044 12.0107 24C12.0107 24.7956 12.3268 25.5587 12.8894 26.1213C13.452 26.6839 14.2151 27 15.0107 27C15.8064 27 16.5695 26.6839 17.1321 26.1213C17.6947 25.5587 18.0107 24.7956 18.0107 24C18.0107 23.2044 17.6947 22.4413 17.1321 21.8787C16.5695 21.3161 15.8064 21 15.0107 21ZM45.0107 21C44.2151 21 43.452 21.3161 42.8894 21.8787C42.3268 22.4413 42.0107 23.2044 42.0107 24C42.0107 24.7956 42.3268 25.5587 42.8894 26.1213C43.452 26.6839 44.2151 27 45.0107 27C45.8064 27 46.5695 26.6839 47.1321 26.1213C47.6947 25.5587 48.0107 24.7956 48.0107 24C48.0107 23.2044 47.6947 22.4413 47.1321 21.8787C46.5695 21.3161 45.8064 21 45.0107 21Z" fill="#172144"/>
</svg>
