<svg width="64" height="78" viewBox="0 0 64 78" fill="none" xmlns="http://www.w3.org/2000/svg">
<path d="M62.5 32.1665H63.5H62.5ZM31.75 76.5832L31.1953 77.4152C31.5312 77.6392 31.9688 77.6392 32.3047 77.4152L31.75 76.5832ZM1 32.1665H0H1ZM31.75 1.4165V2.4165V1.4165ZM61.5 32.1665C61.5 43.7229 54.0468 54.5833 46.399 62.6558C42.5956 66.6706 38.7888 69.949 35.9318 72.2241C34.504 73.361 33.3155 74.2457 32.4858 74.8449C32.071 75.1445 31.7461 75.3726 31.526 75.525C31.4159 75.6012 31.3321 75.6585 31.2763 75.6964C31.2485 75.7153 31.2276 75.7294 31.214 75.7385C31.2073 75.7431 31.2023 75.7465 31.1991 75.7486C31.1976 75.7496 31.1965 75.7503 31.1958 75.7508C31.1955 75.751 31.1954 75.7511 31.1952 75.7512C31.1952 75.7512 31.1953 75.7511 31.75 76.5832C32.3047 77.4152 32.305 77.415 32.3055 77.4147C32.3058 77.4145 32.3064 77.4141 32.307 77.4137C32.3082 77.4129 32.3099 77.4118 32.3121 77.4103C32.3164 77.4074 32.3225 77.4033 32.3305 77.3979C32.3465 77.3872 32.3698 77.3715 32.4001 77.3509C32.4607 77.3097 32.5495 77.249 32.6647 77.1692C32.895 77.0097 33.2307 76.774 33.6568 76.4663C34.5088 75.851 35.7225 74.9473 37.1776 73.7886C40.0862 71.4726 43.9669 68.1312 47.851 64.0313C55.5782 55.8748 63.5 44.5268 63.5 32.1665H61.5ZM31.75 76.5832C32.3047 75.7511 32.3048 75.7512 32.3048 75.7512C32.3046 75.7511 32.3045 75.751 32.3042 75.7508C32.3035 75.7503 32.3024 75.7496 32.3009 75.7486C32.2977 75.7465 32.2927 75.7431 32.286 75.7385C32.2724 75.7294 32.2515 75.7153 32.2237 75.6964C32.1679 75.6585 32.0841 75.6012 31.974 75.525C31.7539 75.3726 31.429 75.1445 31.0142 74.8449C30.1845 74.2457 28.996 73.361 27.5682 72.2241C24.7112 69.949 20.9044 66.6706 17.101 62.6558C9.45324 54.5833 2 43.7229 2 32.1665H0C0 44.5268 7.92176 55.8748 15.649 64.0313C19.5331 68.1312 23.4138 71.4726 26.3224 73.7886C27.7775 74.9473 28.9912 75.851 29.8432 76.4663C30.2693 76.774 30.605 77.0097 30.8353 77.1692C30.9505 77.249 31.0393 77.3097 31.0999 77.3509C31.1302 77.3715 31.1535 77.3872 31.1695 77.3979C31.1775 77.4033 31.1836 77.4074 31.1879 77.4103C31.1901 77.4118 31.1918 77.4129 31.193 77.4137C31.1936 77.4141 31.1942 77.4145 31.1945 77.4147C31.195 77.415 31.1953 77.4152 31.75 76.5832ZM2 32.1665C2 24.2763 5.13437 16.7093 10.7136 11.1301L9.29936 9.71586C3.34508 15.6701 1.19209e-07 23.7459 0 32.1665H2ZM10.7136 11.1301C16.2928 5.55087 23.8598 2.4165 31.75 2.4165V0.416504C23.3294 0.416504 15.2536 3.76158 9.29936 9.71586L10.7136 11.1301ZM31.75 2.4165C39.6402 2.4165 47.2072 5.55087 52.7864 11.1301L54.2006 9.71586C48.2464 3.76158 40.1706 0.416504 31.75 0.416504V2.4165ZM52.7864 11.1301C58.3656 16.7093 61.5 24.2763 61.5 32.1665H63.5C63.5 23.7459 60.1549 15.6701 54.2006 9.71586L52.7864 11.1301ZM41 32.1665C41 37.2751 36.8586 41.4165 31.75 41.4165V43.4165C37.9632 43.4165 43 38.3797 43 32.1665H41ZM31.75 41.4165C26.6414 41.4165 22.5 37.2751 22.5 32.1665H20.5C20.5 38.3797 25.5368 43.4165 31.75 43.4165V41.4165ZM22.5 32.1665C22.5 27.0579 26.6414 22.9165 31.75 22.9165V20.9165C25.5368 20.9165 20.5 25.9533 20.5 32.1665H22.5ZM31.75 22.9165C36.8586 22.9165 41 27.0579 41 32.1665H43C43 25.9533 37.9632 20.9165 31.75 20.9165V22.9165Z" fill="white"/>
</svg>
