<svg width="66" height="65" viewBox="0 0 66 65" fill="none" xmlns="http://www.w3.org/2000/svg">
<path d="M64.7076 28.0184C64.1141 23.7136 62.617 19.4677 60.3764 15.7398C58.1874 12.0972 55.2255 8.83632 51.8117 6.30946C48.3469 3.74512 44.3154 1.86534 40.1534 0.872894C37.7238 0.293776 35.2152 0 32.6974 0C32.6353 0 32.573 0.00210884 32.5109 0.00259549C32.4488 0.00210884 32.3867 0 32.3245 0C29.8071 0 27.2984 0.293776 24.8684 0.872894C20.7061 1.86518 16.6746 3.74512 13.2102 6.30946C9.79653 8.83632 6.83492 12.0972 4.64578 15.7398C2.40534 19.4677 0.907685 23.7136 0.31459 28.0184C-0.29899 32.4739 0.0211877 37.1028 1.24125 41.4051C2.41099 45.5279 4.45077 49.4834 7.13962 52.844C9.80007 56.1689 13.1698 59.0049 16.8837 61.045C20.7006 63.1415 25.0062 64.4616 29.3348 64.8624C30.3198 64.9536 31.322 65 32.3135 65H32.7079C33.6995 65 34.7017 64.9538 35.687 64.8624C40.0157 64.4613 44.3207 63.1415 48.1377 61.045C51.8517 59.0049 55.2209 56.1689 57.8819 52.844C60.5709 49.4834 62.6104 45.5279 63.7801 41.4051C65.0006 37.1029 65.321 32.474 64.7076 28.0184ZM26.9466 57.4327C22.6886 56.5043 18.7088 54.4602 15.4373 51.52C12.1886 48.5995 9.7283 44.8792 8.3229 40.7608C6.67056 35.9192 6.52136 30.5344 7.90207 25.5986C9.34376 26.8587 10.8937 28.1985 12.461 29.4604C13.6887 30.4486 14.9221 31.3956 16.1272 32.2755C16.7238 32.711 17.3495 33.1523 17.9861 33.587C18.2973 33.799 18.6092 34.0072 18.9146 34.2059C19.0535 34.2967 19.1936 34.3869 19.333 34.4761C19.4917 34.5774 19.532 34.6259 19.6041 34.8014C20.8274 37.7862 23.1585 39.9002 24.8991 41.1478C25.4894 41.5714 26.1054 41.957 26.7295 42.2934C26.9018 42.3864 27.076 42.4766 27.2521 42.563C27.2656 42.7265 27.2798 42.8897 27.2953 43.0516C27.3284 43.4048 27.3634 43.7568 27.4021 44.1089C27.5605 45.5709 27.7673 47.0811 28.0341 48.726C28.508 51.6483 29.1112 54.6465 29.8784 57.8921C29.878 57.8921 28.9786 57.8512 26.9466 57.4327ZM32.099 23.3433C29.8742 23.3433 27.9286 23.55 26.1514 23.9755C25.5915 24.1096 25.0557 24.2684 24.5589 24.4472C24.3021 24.5393 24.0485 24.6399 23.8056 24.7458C23.6951 24.7937 23.5853 24.8436 23.4764 24.8951C23.3604 24.9496 23.2566 24.9056 23.154 24.8539C23.1277 24.8402 23.099 24.826 23.0688 24.8127C21.8267 24.2572 20.4537 23.6966 18.8734 23.0995C16.1046 22.0529 13.1548 21.0784 10.1062 20.2029V20.2028C12.1523 16.4787 15.1192 13.2962 18.6868 10.999C22.7603 8.37579 27.4763 6.98931 32.3245 6.98931H32.6975C37.5457 6.98931 42.2617 8.37579 46.3352 10.999C49.9028 13.2962 52.87 16.4787 54.9158 20.2028V20.2029C51.8675 21.0784 48.9174 22.0529 46.1485 23.0995C44.5683 23.6966 43.1957 24.2572 41.9532 24.8127C41.9229 24.826 41.8946 24.8402 41.8682 24.8539C41.7653 24.9056 41.6617 24.9496 41.5456 24.8951C41.4369 24.8436 41.3272 24.7937 41.2167 24.7458C40.9734 24.6401 40.72 24.5395 40.4631 24.4472C39.9666 24.2683 39.4309 24.1096 38.8708 23.9755C37.0936 23.55 35.148 23.3433 32.9234 23.3433H32.099ZM56.6992 40.7608C55.2939 44.8793 52.8334 48.5995 49.5849 51.52C46.3139 54.4602 42.3338 56.5048 38.0759 57.4327C36.1509 57.8332 35.1441 57.8921 35.1441 57.8921C35.9109 54.6463 36.5145 51.6483 36.9886 48.7258C37.2552 47.0811 37.4621 45.5709 37.6209 44.1088C37.6591 43.7566 37.6941 43.4046 37.7273 43.0516C37.7428 42.8894 37.757 42.7265 37.7705 42.563C37.947 42.4762 38.1206 42.3862 38.2931 42.2934C38.917 41.9566 39.5332 41.571 40.1236 41.1477C41.8641 39.9002 44.1949 37.7862 45.4187 34.8012C45.4903 34.6257 45.5306 34.5772 45.6896 34.476C45.8288 34.3869 45.9689 34.2967 46.1084 34.2057C46.4134 34.0067 46.7255 33.7985 47.0365 33.5867C47.6731 33.152 48.2988 32.711 48.8955 32.2753C50.1005 31.3955 51.3341 30.4484 52.5613 29.4602C54.1294 28.1985 55.679 26.8586 57.1207 25.5984C58.501 30.5344 58.3516 35.9192 56.6992 40.7608Z" fill="#4F75E2"/>
</svg>
