<svg width="25" height="22" viewBox="0 0 25 22" fill="none" xmlns="http://www.w3.org/2000/svg">
<path d="M12.9598 14.377L10.1889 11.616L10.2217 11.583C12.1198 9.449 13.4726 6.996 14.2689 4.4H17.4653V2.2H9.82892V0H7.64711V2.2H0.0107422V4.4H12.1962C11.4653 6.512 10.3089 8.525 8.73802 10.285C7.72347 9.152 6.88347 7.909 6.21802 6.6H4.0362C4.83256 8.393 5.92347 10.087 7.28711 11.616L1.73438 17.138L3.28347 18.7L8.73802 13.2L12.1307 16.621L12.9598 14.377ZM19.1017 8.8H16.9198L12.0107 22H14.1926L15.4144 18.7H20.5962L21.8289 22H24.0107L19.1017 8.8ZM16.2435 16.5L18.0107 11.737L19.778 16.5H16.2435Z" fill="white"/>
</svg>
