<svg width="150" height="150" viewBox="0 0 150 150" fill="none" xmlns="http://www.w3.org/2000/svg">
<path d="M67.5 97.5H82.5V112.5H67.5V97.5ZM67.5 37.5H82.5V82.5H67.5V37.5ZM75 0C33.525 0 0 33.75 0 75C0 94.8912 7.90176 113.968 21.967 128.033C28.9314 134.997 37.1993 140.522 46.2987 144.291C55.3982 148.06 65.1509 150 75 150C94.8912 150 113.968 142.098 128.033 128.033C142.098 113.968 150 94.8912 150 75C150 65.1509 148.06 55.3982 144.291 46.2987C140.522 37.1993 134.997 28.9314 128.033 21.967C121.069 15.0026 112.801 9.47814 103.701 5.70904C94.6018 1.93993 84.8491 0 75 0ZM75 135C59.087 135 43.8258 128.679 32.5736 117.426C21.3214 106.174 15 90.913 15 75C15 59.087 21.3214 43.8258 32.5736 32.5736C43.8258 21.3214 59.087 15 75 15C90.913 15 106.174 21.3214 117.426 32.5736C128.679 43.8258 135 59.087 135 75C135 90.913 128.679 106.174 117.426 117.426C106.174 128.679 90.913 135 75 135Z" fill="#4F75E2"/>
</svg>
