<svg width="18" height="18" viewBox="0 0 18 18" fill="none" xmlns="http://www.w3.org/2000/svg">
<path fill-rule="evenodd" clip-rule="evenodd" d="M0 9C0 4.02944 4.02944 0 9 0C13.9706 0 18 4.02944 18 9C18 13.9706 13.9706 18 9 18C4.02944 18 0 13.9706 0 9ZM6.36019 7.45422H4.32059V13.5824H6.36019V7.45422ZM6.49454 5.55851C6.4813 4.95765 6.05162 4.5 5.35389 4.5C4.65615 4.5 4.2 4.95765 4.2 5.55851C4.2 6.14693 4.64267 6.61776 5.32741 6.61776H5.34045C6.05162 6.61776 6.49454 6.14693 6.49454 5.55851ZM13.7158 10.0687C13.7158 8.18636 12.7096 7.3103 11.3674 7.3103C10.2845 7.3103 9.7997 7.9051 9.529 8.32237V7.45437H7.48916C7.51604 8.0294 7.48916 13.5825 7.48916 13.5825H9.529V10.16C9.529 9.9769 9.54224 9.7942 9.59617 9.66307C9.74358 9.29717 10.0792 8.91835 10.6427 8.91835C11.381 8.91835 11.6762 9.48028 11.6762 10.3038V13.5823H13.7157L13.7158 10.0687Z" fill="#172144"/>
</svg>
