<svg width="1454" height="238" viewBox="0 0 1454 238" fill="none" xmlns="http://www.w3.org/2000/svg">
<path d="M344.903 158L333.478 128.547H296.28L284.918 158H274L310.309 64.8164H320.021L356.075 158H344.903ZM330.24 118.962L319.386 89.6992C319.132 88.9375 318.709 87.6891 318.116 85.9541C317.566 84.2191 316.995 82.4206 316.402 80.5586C315.81 78.6966 315.323 77.1943 314.942 76.0518C314.519 77.7868 314.054 79.5218 313.546 81.2568C313.08 82.9495 312.615 84.5365 312.149 86.0176C311.684 87.4564 311.282 88.6836 310.943 89.6992L299.898 118.962H330.24ZM408.634 73.3857C403.513 73.3857 398.901 74.2744 394.796 76.0518C390.733 77.7868 387.263 80.3258 384.386 83.6689C381.55 86.9697 379.371 90.9688 377.848 95.666C376.324 100.363 375.562 105.653 375.562 111.535C375.562 119.322 376.769 126.092 379.181 131.848C381.635 137.561 385.274 141.983 390.099 145.114C394.965 148.246 401.038 149.812 408.316 149.812C412.464 149.812 416.357 149.473 419.996 148.796C423.678 148.076 427.254 147.188 430.724 146.13V155.524C427.338 156.794 423.784 157.725 420.06 158.317C416.336 158.952 411.913 159.27 406.793 159.27C397.356 159.27 389.464 157.323 383.116 153.43C376.811 149.494 372.071 143.951 368.897 136.799C365.766 129.647 364.2 121.205 364.2 111.472C364.2 104.447 365.174 98.0358 367.12 92.2383C369.109 86.3984 371.987 81.3626 375.753 77.1309C379.562 72.8991 384.216 69.6406 389.718 67.3555C395.261 65.028 401.609 63.8643 408.761 63.8643C413.458 63.8643 417.986 64.3298 422.345 65.2607C426.703 66.1917 430.639 67.5247 434.151 69.2598L429.835 78.4004C426.873 77.0462 423.614 75.8825 420.06 74.9092C416.547 73.8936 412.739 73.3857 408.634 73.3857ZM479.347 158H468.492V74.7188H439.293V65.1973H508.419V74.7188H479.347V158ZM592.652 65.1973V125.246C592.652 131.805 591.319 137.645 588.653 142.766C586.03 147.886 582.052 151.927 576.72 154.89C571.388 157.81 564.701 159.27 556.661 159.27C545.193 159.27 536.454 156.159 530.445 149.938C524.479 143.718 521.495 135.402 521.495 124.992V65.1973H532.35V125.31C532.35 133.181 534.423 139.253 538.57 143.527C542.76 147.801 549.002 149.938 557.296 149.938C562.966 149.938 567.6 148.923 571.197 146.892C574.837 144.818 577.524 141.94 579.259 138.259C581.036 134.535 581.925 130.24 581.925 125.373V65.1973H592.652ZM675.489 158L664.063 128.547H626.866L615.504 158H604.586L640.895 64.8164H650.606L686.661 158H675.489ZM660.826 118.962L649.972 89.6992C649.718 88.9375 649.295 87.6891 648.702 85.9541C648.152 84.2191 647.581 82.4206 646.988 80.5586C646.396 78.6966 645.909 77.1943 645.528 76.0518C645.105 77.7868 644.64 79.5218 644.132 81.2568C643.666 82.9495 643.201 84.5365 642.735 86.0176C642.27 87.4564 641.868 88.6836 641.529 89.6992L630.484 118.962H660.826ZM699.547 158V65.1973H710.338V148.352H751.534V158H699.547ZM767.467 158V65.1973H778.258V158H767.467ZM856.144 133.308C856.144 138.809 854.768 143.506 852.018 147.399C849.309 151.25 845.501 154.191 840.592 156.223C835.683 158.254 829.907 159.27 823.263 159.27C819.75 159.27 816.428 159.1 813.297 158.762C810.165 158.423 807.288 157.937 804.664 157.302C802.04 156.667 799.734 155.884 797.745 154.953V144.606C800.919 145.918 804.791 147.146 809.361 148.288C813.932 149.388 818.714 149.938 823.707 149.938C828.362 149.938 832.298 149.325 835.514 148.098C838.73 146.828 841.163 145.03 842.813 142.702C844.506 140.332 845.353 137.497 845.353 134.196C845.353 131.022 844.654 128.378 843.258 126.262C841.861 124.104 839.534 122.157 836.275 120.422C833.059 118.645 828.658 116.761 823.072 114.772C819.137 113.376 815.667 111.853 812.662 110.202C809.658 108.509 807.14 106.605 805.108 104.489C803.077 102.373 801.533 99.9189 800.475 97.126C799.459 94.333 798.951 91.138 798.951 87.541C798.951 82.5898 800.2 78.3581 802.696 74.8457C805.235 71.291 808.727 68.5827 813.17 66.7207C817.656 64.8164 822.797 63.8643 828.595 63.8643C833.546 63.8643 838.116 64.3298 842.306 65.2607C846.537 66.1917 850.41 67.4401 853.922 69.0059L850.558 78.2734C847.215 76.877 843.66 75.7132 839.894 74.7822C836.17 73.8512 832.319 73.3857 828.341 73.3857C824.363 73.3857 820.999 73.9782 818.248 75.1631C815.54 76.3057 813.466 77.9349 812.027 80.0508C810.589 82.1667 809.869 84.6846 809.869 87.6045C809.869 90.863 810.546 93.5713 811.9 95.7295C813.297 97.8877 815.497 99.8132 818.502 101.506C821.549 103.156 825.569 104.891 830.562 106.711C836.021 108.7 840.655 110.816 844.464 113.059C848.272 115.259 851.171 117.967 853.16 121.184C855.149 124.357 856.144 128.399 856.144 133.308ZM908.893 65.1973H935.172C946.767 65.1973 955.484 66.9323 961.324 70.4023C967.164 73.8724 970.084 79.7757 970.084 88.1123C970.084 91.7093 969.386 94.9466 967.989 97.8242C966.635 100.66 964.646 103.008 962.022 104.87C959.399 106.732 956.161 108.023 952.311 108.742V109.377C956.373 110.012 959.97 111.175 963.102 112.868C966.233 114.561 968.688 116.931 970.465 119.978C972.242 123.024 973.131 126.896 973.131 131.594C973.131 137.307 971.798 142.131 969.132 146.066C966.508 150.002 962.784 152.985 957.96 155.017C953.136 157.006 947.423 158 940.821 158H908.893V65.1973ZM919.684 104.997H937.457C945.54 104.997 951.126 103.664 954.215 100.998C957.346 98.332 958.912 94.4388 958.912 89.3184C958.912 84.0286 957.05 80.2201 953.326 77.8926C949.645 75.5651 943.762 74.4014 935.68 74.4014H919.684V104.997ZM919.684 114.074V148.796H938.98C947.232 148.796 953.072 147.188 956.5 143.972C959.928 140.713 961.642 136.333 961.642 130.832C961.642 127.32 960.859 124.315 959.293 121.818C957.77 119.322 955.273 117.417 951.803 116.105C948.375 114.751 943.784 114.074 938.028 114.074H919.684ZM1051.14 158L1039.72 128.547H1002.52L991.158 158H980.24L1016.55 64.8164H1026.26L1062.32 158H1051.14ZM1036.48 118.962L1025.63 89.6992C1025.37 88.9375 1024.95 87.6891 1024.36 85.9541C1023.81 84.2191 1023.24 82.4206 1022.64 80.5586C1022.05 78.6966 1021.56 77.1943 1021.18 76.0518C1020.76 77.7868 1020.29 79.5218 1019.79 81.2568C1019.32 82.9495 1018.86 84.5365 1018.39 86.0176C1017.92 87.4564 1017.52 88.6836 1017.18 89.6992L1006.14 118.962H1036.48ZM1075.2 158V65.1973H1085.99V148.352H1127.19V158H1075.2ZM1171.62 158H1160.77V74.7188H1131.57V65.1973H1200.69V74.7188H1171.62V158ZM1214.72 158V65.1973H1225.51V158H1214.72ZM1290.7 73.3857C1285.58 73.3857 1280.97 74.2744 1276.87 76.0518C1272.8 77.7868 1269.33 80.3258 1266.46 83.6689C1263.62 86.9697 1261.44 90.9688 1259.92 95.666C1258.39 100.363 1257.63 105.653 1257.63 111.535C1257.63 119.322 1258.84 126.092 1261.25 131.848C1263.71 137.561 1267.34 141.983 1272.17 145.114C1277.04 148.246 1283.11 149.812 1290.39 149.812C1294.53 149.812 1298.43 149.473 1302.07 148.796C1305.75 148.076 1309.32 147.188 1312.79 146.13V155.524C1309.41 156.794 1305.85 157.725 1302.13 158.317C1298.41 158.952 1293.98 159.27 1288.86 159.27C1279.43 159.27 1271.53 157.323 1265.19 153.43C1258.88 149.494 1254.14 143.951 1250.97 136.799C1247.84 129.647 1246.27 121.205 1246.27 111.472C1246.27 104.447 1247.24 98.0358 1249.19 92.2383C1251.18 86.3984 1254.06 81.3626 1257.82 77.1309C1261.63 72.8991 1266.29 69.6406 1271.79 67.3555C1277.33 65.028 1283.68 63.8643 1290.83 63.8643C1295.53 63.8643 1300.06 64.3298 1304.42 65.2607C1308.77 66.1917 1312.71 67.5247 1316.22 69.2598L1311.91 78.4004C1308.94 77.0462 1305.68 75.8825 1302.13 74.9092C1298.62 73.8936 1294.81 73.3857 1290.7 73.3857Z" fill="#4F75E2"/>
<path d="M26.5 1.36659C15.3 4.36659 5.5 13.3666 1.8 23.9666C0.2 28.7666 0 32.9666 0 69.2666C0.1 113.867 0.6 119.367 7 138.467C13.9 159.067 25.1 177.167 41.3 193.967C57.7 210.967 75 223.867 93.9 233.367C102.5 237.667 103.4 237.967 110.1 237.567C118.6 237.167 125.4 233.967 144.5 221.267C183.7 195.167 208 161.167 216.2 120.967C217.8 113.467 218 106.467 218 69.7666V27.2666L214.7 20.5666C210.7 12.4666 203.7 5.7666 195.7 2.5666L190 0.266602L111 0.0666046C43.8 -0.133408 31.2 0.0666046 26.5 1.36659ZM114.6 39.9666C123.3 50.9666 127.5 62.6666 127.5 75.7666C127.5 85.6666 125.8 93.1666 121 103.767C116.8 113.067 114.6 120.767 113.7 128.967L113 135.267L109.3 135.567L105.6 135.867L105 131.067C103.9 122.367 101.4 113.367 97.8 105.267C88.6 84.4666 88.3 68.1666 96.6 51.4666C100.5 43.6666 107.1 34.7666 109 34.7666C109.8 34.7666 112.3 37.0666 114.6 39.9666ZM75.4 88.3666C84.2 92.7666 91.3 104.067 95.5 120.567C96.6 124.767 97.6 129.867 97.7 131.767C98 134.967 97.7 135.267 95.2 135.567C92.8 135.867 92.3 135.367 90.6 131.467C87.1 123.367 79.8 116.767 74.2 116.767C70.9 116.767 69.5 118.567 69.5 122.767C69.5 126.467 68.1 128.767 65.9 128.767C64 128.767 53.6 118.867 51.8 115.367C47.7 107.367 48.5 98.1666 53.8 92.0666C59.8 85.2666 66.8 84.0666 75.4 88.3666ZM159.3 87.8666C165.9 91.0666 169 96.4666 169 104.667C169 112.867 165.8 118.867 158.3 124.867C152 129.767 150.2 129.667 149.4 124.067C149.1 121.767 148.3 119.267 147.6 118.367C143.8 113.767 134.3 119.367 128.7 129.467C126 134.467 124.8 135.767 122.9 135.767C120.9 135.767 120.5 135.267 120.5 132.467C120.5 127.767 124.8 112.867 128.3 105.367C133.7 93.7666 143.1 85.8666 151.4 85.7666C153.3 85.7666 156.8 86.7666 159.3 87.8666ZM135.1 141.267C135.5 142.067 135.2 143.467 134.5 144.267C133.5 145.567 129.4 145.767 110 145.767C97.1 145.767 86 145.467 85.1 145.167C83.5 144.567 82.9 141.667 84.2 140.467C84.5 140.067 96 139.767 109.7 139.767C131 139.767 134.6 139.967 135.1 141.267ZM122 153.767C123.4 156.467 126.5 161.167 129 164.167C132.9 168.967 134.4 171.767 133.2 171.767C132.1 171.767 121.4 167.767 118.8 166.367C117.1 165.567 114.7 163.267 113.5 161.267C112.3 159.367 110.5 157.767 109.5 157.767C108.6 157.767 106.1 159.767 104.2 162.167C101.3 165.667 99.2 166.967 93.1 169.167C89 170.567 85.4 171.767 85.1 171.767C83.7 171.767 84.7 169.967 89 164.767C91.5 161.767 94.7 156.867 96.3 154.067L99 148.767H109.2H119.5L122 153.767Z" fill="#4F75E2"/>
</svg>
